<?xml version="1.0" encoding="utf-8"?>
<!-- Generator: Adobe Illustrator 19.0.0, SVG Export Plug-In . SVG Version: 6.00 Build 0)  -->
<svg version="1.1" xmlns="http://www.w3.org/2000/svg" xmlns:xlink="http://www.w3.org/1999/xlink" x="0px" y="0px"
	 viewBox="0 0 2500 2500" style="enable-background:new 0 0 2500 2500;" xml:space="preserve">
<style type="text/css">
	.st0{fill:none;stroke:#FFFFFF;stroke-width:20;stroke-miterlimit:10;}
	.st1{fill:none;stroke:#FFFFFF;stroke-width:20;stroke-linecap:round;stroke-miterlimit:10;}
	.st2{fill:#FFFFFF;stroke:#FFFFFF;stroke-width:20;stroke-linecap:round;stroke-miterlimit:10;}
	.st3{fill:none;stroke:#FFFFFF;stroke-width:20;stroke-linecap:round;stroke-linejoin:round;stroke-miterlimit:10;}
	.st4{fill:none;stroke:#FFFFFF;stroke-width:10;stroke-linecap:round;stroke-linejoin:round;stroke-miterlimit:10;}
</style>
<g id="Layer_1">
</g>
<g id="Layer_2">
	<rect id="XMLID_1_" x="-6.2" y="1.5" width="2512.4" height="2498.5"/>
</g>
<g id="Layer_3">
	<path id="XMLID_3_" class="st0" d="M339.9,587.7c0,0-252.7,4.9-264.2,206.8s216.6,162.5,333.1,90.3s354.4,109.9,617,90.3
		c262.6-19.7,723.7-57.4,745-329.8c21.3-272.4-67.3-608.8-480.8-543.2c0,0-203.5-11.5-211.7,0c-8.2,11.5-88.6,139.5-88.6,139.5
		s-141.1-21.3-146-13.1c-4.9,8.2-85.3,162.5-142.8,169c-57.4,6.6-205.1-6.6-267.5,67.3S364.5,587.7,339.9,587.7z"/>
	<path id="XMLID_5_" class="st0" d="M422.2,1355c0,0,150,225.7,288.5,184.3C849.3,1497.8,995,1365,1115,1360.7
		c120-4.3,397.1,47.1,522.8-202.8s68.6-345.7,4.3-292.8s-91.4,121.4-108.6,124.3c-17.1,2.9-357.1-42.9-528.5,58.6
		S596.5,1399.2,422.2,1355z"/>
	<path id="XMLID_6_" class="st1" d="M1471.4,714.5c0,0-110.6-375.6,127.9-267.3"/>
	<path id="XMLID_7_" class="st1" d="M1537.1,690.3c0,0,1.2-76,59.9-71.4"/>
	<path id="XMLID_8_" class="st1" d="M585.5,798.6c0,0,471.2,199.3,588.7,0"/>
	<path id="XMLID_9_" class="st1" d="M964.5,1312.5c0,0,33.4-62.2,63.4-66.8"/>
	<path id="XMLID_10_" class="st1" d="M1238.7,1198.4c0,0,69.1-28.8,99.1-11.5"/>
	<path id="XMLID_11_" class="st1" d="M1768.4,687.8c0,0,112.7,76.6,166.2,0c0,0,52.5,272.3-142.2,364.2c0,0-76.6-26.2-86.4-60.2"/>
	<path id="XMLID_4_" class="st1" d="M1855.4,1195.3c0,0-30.6,78.1,0,96.2c30.6,18.1,306.8-90.6,296.6-126.8
		c-10.2-36.2-74.7-108.7-74.7-108.7S1867.9,1170.4,1855.4,1195.3z"/>
	<path id="XMLID_13_" class="st1" d="M1958.5,1459.1c0,0-49.8,152.9,6.8,167.6c56.6,14.7,149.5-71.3,182.3-75.9
		c32.8-4.5,105.3-38.5,84.9-91.7c-20.4-53.2-64.5-96.2-64.5-96.2L1958.5,1459.1z"/>
	<path id="XMLID_14_" class="st1" d="M2026.4,1624.4c0,0,57.7,169.8,144.9,253.6s141.5,180,157.4,165.3
		c15.9-14.7,100.8-455.2,94-472.1c-6.8-17-161.9-91.7-182.3-83.8c0,0-39.6,49.8-79.3,58.9S2032.1,1618.8,2026.4,1624.4z"/>
	<path id="XMLID_12_" class="st1" d="M1976.4,1631.3c0,0-77,18-94.9,21.8c-18,3.8-100.1,110.3-100.1,110.3s89.8,53.9,118,43.6
		s133.4-136,114.2-182.1"/>
	<path id="XMLID_16_" class="st1" d="M1959.7,1758.3c0,0-28.2,80.8-3.8,94.9c24.4,14.1,87.2,16.7,94.9,1.3
		c7.7-15.4,43.6-57.7,37.2-82.1"/>
	<path id="XMLID_17_" class="st1" d="M1950.7,1854.5c0,0-5.1,51.3-25.7,59c-20.5,7.7-284.8,123.1-273.2,189.8
		c11.5,66.7,82.1,84.7,143.7,34.6c61.6-50,246.3-178.3,246.3-198.8s-9-74.4-9-74.4"/>
	<path id="XMLID_18_" class="st1" d="M1646.7,2095.7c0,0-220.6-59-247.6,7.7c-26.9,66.7,9,112.9,39.8,118
		c30.8,5.1,243.7-7.7,251.4-56.4"/>
	<path id="XMLID_15_" class="st1" d="M1781.4,1763.5c0,0-268.1,12.8-293.7,51.3c-25.7,38.5-28.2,82.1-1.3,87.2
		c26.9,5.1,356.6,15.4,365.6-21.8c9-37.2,6.4-74.4,6.4-74.4"/>
	<path id="XMLID_19_" class="st1" d="M1482.6,1812.2c0,0-34.6-89.8-146.2-88.5c-111.6,1.3-170.6,24.4-151.4,87.2
		s160.3,15.4,183.4,34.6c23.1,19.2,83.4,60.3,97.5,35.9"/>
	<path id="XMLID_20_" class="st1" d="M1392.8,2116.2c0,0-220.6,20.5-197.5,87.2c23.1,66.7,198.8-20.5,198.8-20.5"/>
	<path id="XMLID_22_" class="st1" d="M1379.4,2190.3c0,0-193.7,80.8-160.3,136c33.4,55.2,198.8-112.9,198.8-112.9"/>
	<path id="XMLID_21_" class="st1" d="M1428.5,2223.3c0,0-86.1,159.8-27.3,188.9s74.3-172.8,67.5-184.6"/>
	<path id="XMLID_23_" class="st1" d="M1202.4,1836.6c0,0-12.4,175,55.1,175s8-163.5,8-163.5"/>
	<path id="XMLID_24_" class="st1" d="M1176.6,1810.9c0,0-132.4,147.5-66.6,196.3c65.7,48.9,92.4-93.3,92.4-93.3"/>
	<path id="XMLID_25_" class="st1" d="M1181.9,1767.4c-2.7,0-241.6,9.8-211.4,117.3s190.1-54.2,190.1-54.2"/>
</g>
<g id="Layer_4">
	<path id="XMLID_27_" class="st2" d="M1788.5,1017.1c0,0-22.8,195.9,34.9,203.9c57.7,8,303.2-157,295.1-221.4
		c-8-64.4-89.9-65.7-106-91.2c-16.1-25.5-69.8-102-95.3-65.7C1891.8,879,1792.6,1001,1788.5,1017.1z"/>
	<path id="XMLID_26_" class="st2" d="M1890.5,1280.1c-1.4,4-49.6,167.7-6.7,193.2c42.9,25.5,355.5-91.2,342.1-151.6
		c-13.4-60.4-75.1-146.2-89.9-136.8C2121.2,1194.2,1903.9,1242.5,1890.5,1280.1z"/>
	<path id="XMLID_28_" class="st2" d="M430.1,1362.7c0,0-93.5-36.9-92.7-64.4c0.9-27.5,105.5,6.9,107.3,0.9s0.9-71.2,18-81.5
		c17.2-10.3,84.9,70.4,105.5,61.8s9.4-97,22.3-103.8c12.9-6.9,116.7,53.2,124.4,40.3s-12-112.4,4.3-125.3
		c16.3-12.9,100.4,38.6,109.8,27.5c9.4-11.2-12.9-66.9,8.6-82.4c21.5-15.4,72.9,59.2,83.2,57.5c10.3-1.7-156.2,135.6-158.7,137.3
		C759.6,1232.3,558.8,1371.3,430.1,1362.7z"/>
	<path id="XMLID_30_" class="st2" d="M206.3,944.8c0,0,66.9,127.9,98.5,114.3c31.6-13.5,17.3-118.1,34.6-123.3s66.9,83.5,84.2,79.7
		c17.3-3.8,30.8-105.3,54.9-109.1c24.1-3.8,50.4,102.3,79,95.5c28.6-6.8,40.6-90.3,70.7-82c30.1,8.3,16.5,91.8,42.1,100
		c25.6,8.3,59.4-82.7,82-65.4c22.6,17.3,13.5,75.2,39.1,78.2c25.6,3,53.4-63.2,64.7-61.7c11.3,1.5,28.6,61.7,46.6,61.7
		s66.9-54.2,66.9-54.2s-252-41.4-289.6-60.2c-37.6-18.8-199.3-67.7-256.5-39.9C366.5,906.5,258.9,957.6,206.3,944.8z"/>
	<path id="XMLID_31_" class="st2" d="M1192.1,242.8c0,0-98.3-41.2-212.4,58.6s-115.7,198.1-25.4,267.8s98.3,118.9,215.5,84
		c117.3-34.9,177.5-177.5,155.3-255.2S1220.6,236.5,1192.1,242.8z"/>
	<path id="XMLID_32_" class="st1" d="M761.6,453.7c0,0-131.9,61.3-94.6,147.9s251.9,97.3,243.9,28S800.2,444.4,761.6,453.7z"/>
	<path id="XMLID_33_" class="st1" d="M287.1,672.3c-1.2-3.8-74.6,29.3-66.6,122.6C220.5,794.9,327.1,800.2,287.1,672.3z"/>
	<path id="XMLID_29_" class="st3" d="M683.1,534.5c50.6-13.7,98.9-41.7,151.2-39.1c-20.8,15.3-41.6,30.6-62.4,45.9
		c-24.2,17.8-48.9,36.1-66,60.8c42.6-27.9,86.7-56.4,136.8-65c3.5,7.5-2.8,15.7-8.4,21.8c-18,19.6-33.4,41.6-45.9,65.1
		c17.9,2.9,33.5-11,49.4-19.9c15.7-8.9,33.9-13.3,51.9-12.7c-12.9,16.7-25.7,33.5-38.6,50.2c-4.1,5.4-8.5,12.4-5.4,18.5
		c15.2-0.1,30.4-5.7,42.1-15.5"/>
	<path id="XMLID_34_" class="st4" d="M253.5,702.5c1.5,3,5.1,4.5,8.5,4.8c3.4,0.3,6.8-0.3,10.2-0.4c7.6-0.1,15.2,2.9,20.7,8.1
		c0.6,0.6,1.2,1.2,1.3,2c0.3,1.7-1.7,2.9-3.4,3.5c-18,6.2-39.3,2.2-55.1,12.6c-1.1,0.7-2.2,1.6-2.2,2.9c-0.1,1.9,2.2,2.9,4.1,3.2
		c7.1,1.4,14.4,1.9,21.6,1.5c2.6-0.2,5.3-0.4,7.7,0.5c2.4,1,4.4,3.7,3.5,6.1c-0.5,1.4-1.7,2.4-2.9,3.2c-2.8,1.8-5.8,3.3-9,4.2
		c-5.4,1.7-11.9,2.3-15.1,7c2.8,2.1,6.5,2.5,9.9,3.3s7.1,2.8,7.8,6.2c1.1,5-4.7,8.7-9.7,9.6c-5,0.8-10.8,0.5-14.5,4"/>
	<path id="XMLID_35_" class="st4" d="M1776.2,701.9c15.8,52.3,22.6,107.4,19.9,162"/>
	<path id="XMLID_36_" class="st4" d="M1812.6,719.3c22.6,63,31.3,130.9,25.4,197.5"/>
	<path id="XMLID_37_" class="st4" d="M1871.1,728.4c10.9,42.4,13.1,87,6.7,130.3"/>
</g>
</svg>
